# xmcd
#
# Track frame offsets:
#	150
#	9725
#	20425
#	33875
#	48362
#	65325
#	77525
#	91850
#	101550
#	111925
#	125812
#	141075
#	152175
#	165462
#	176412
#	186475
#	205525
#	218225
#	229562
#	242950
#	255350
#	266975
#	277000
#	289225
#
# Disc length: 4019
#
# Revision: 2
# Processed by: cddbd v1.5.1PL0 Copyright (c) Steve Scherf et al.
# Submitted via: dBpowerAMP V4.0
# Normalized: r0:TSWAP
#
DISCID=540fb118
DTITLE=Various Artist - Country Super Hits
DYEAR=1993
DGENRE=Country
TTITLE0=Charlie Pride - Kiss An Angel Good Morning
TTITLE1=Roger Miller - King Of The Road
TTITLE2=Tammy Wynette - Stand By your Man
TTITLE3=Kris Kristofferson - The Pilgrim
TTITLE4=Tom T Hall - Old Dogs, Children and Watermelon Wine
TTITLE5=Johnny Cash and June Carter - Jackson
TTITLE6=Glen Campbell - Rhinestone Cowboy
TTITLE7=Roy Orbison - Blue Blue Day
TTITLE8=Buck Owens - Act Naturally
TTITLE9=Barabara Fairchild - Teddy Bear Song
TTITLE10=Merle Haggard - Mule Skinner Blues
TTITLE11=Neil Sedaka - Poetry In Motion
TTITLE12=Lynn Anderson - Rose Garden
TTITLE13=David Houston - Detroit City
TTITLE14=Connie Smith - Once a Day
TTITLE15=Ray Charles - I Can't Stop Loving You
TTITLE16=Faron Young - Four In The Morning
TTITLE17=Donna Fargo - The Happiest Girl In The Whole U.S.A.
TTITLE18=Jimmy Dean - Big Bad John
TTITLE19=Claude King - Wolverton Mountain
TTITLE20=Patsy Cline - Walking After Midnight
TTITLE21=Jim Reeves - He'll Have To Go
TTITLE22=Dolly Parton - Makin' Believe
TTITLE23=Kenny Rogers - Reuben James
EXTD=Marketed by Hughes Leisure Group 1993\nPO Box 914 Mona Vale, Sydney 2103 Australia\nsubmitted by Shyone
EXTT0=
EXTT1=
EXTT2=
EXTT3=
EXTT4=
EXTT5=
EXTT6=
EXTT7=
EXTT8=
EXTT9=
EXTT10=
EXTT11=
EXTT12=
EXTT13=
EXTT14=
EXTT15=
EXTT16=
EXTT17=
EXTT18=
EXTT19=
EXTT20=
EXTT21=
EXTT22=
EXTT23=
PLAYORDER=
